<svg xmlns="http://www.w3.org/2000/svg" width="28" height="28" viewBox="0 0 28 28">
  <path fill="#99A6B5" fill-rule="evenodd" d="M23.3802734,21.2802734 C22.4,18.3394532 20.3,16.1 17.6394532,15.1197266 C18.9,14 19.7394532,12.4605468 19.7394532,10.6394532 C19.7394532,7.41972658 17.2197266,4.9 14,4.9 C10.7802734,4.9 8.26054684,7.41972658 8.26054684,10.6394532 C8.26054684,12.4605468 9.1,14 10.3605468,15.1197266 C7.7,16.2394532 5.6,18.4802734 4.61972658,21.2802734 C3.08027342,19.3197266 2.1,16.6605468 2.1,13.8605468 C2.1,7.28027342 7.41972658,1.96054684 14,1.96054684 C20.5802734,1.96054684 25.9,7.28027342 25.9,13.8605468 C25.9,16.6605468 25.0605468,19.3197266 23.3802734,21.2802734 Z M14,14.2802734 C12.0394532,14.2802734 10.3605468,12.6 10.3605468,10.6394532 C10.3605468,8.68027342 12.0394532,7 14,7 C15.9605468,7 17.6394532,8.68027342 17.6394532,10.6394532 C17.6394532,12.6 16.1,14.2802734 14,14.2802734 Z M6.43945316,23.1 C7.28027342,19.3197266 10.3605468,16.5197266 14,16.5197266 C17.6394532,16.5197266 20.8605468,19.3197266 21.5605468,23.1 C19.4605468,24.7802734 16.8,25.9 14,25.9 C11.2,25.9 8.53945316,24.7802734 6.43945316,23.1 Z M14,0 C6.3,0 0,6.3 0,14 C0,21.7 6.3,28 14,28 C21.7,28 28,21.7 28,14 C28,6.3 21.8394532,0 14,0 Z"/>
</svg>
